<?xml version="1.0" standalone="no"?>
<!DOCTYPE svg PUBLIC "-//W3C//DTD SVG 20010904//EN"
 "http://www.w3.org/TR/2001/REC-SVG-20010904/DTD/svg10.dtd">
<svg version="1.0" xmlns="http://www.w3.org/2000/svg"
 width="580.000000pt" height="571.000000pt" viewBox="0 0 580.000000 571.000000"
 preserveAspectRatio="xMidYMid meet">

<g transform="translate(0.000000,571.000000) scale(0.100000,-0.100000)"
fill="#000000" stroke="none">
<path d="M3543 3735 c-9 -9 -13 -50 -13 -125 0 -67 -4 -110 -10 -110 -6 0 -10
-62 -10 -165 0 -103 4 -165 10 -165 6 0 10 -13 10 -30 0 -16 5 -30 10 -30 6 0
10 -7 10 -15 0 -12 14 -15 70 -15 54 0 70 3 70 14 0 8 6 16 12 18 9 3 8 9 -4
21 -19 20 -64 23 -70 5 -3 -8 -14 -3 -32 15 l-27 27 1 167 c2 187 4 193 70
193 45 0 70 17 70 49 0 19 -6 21 -60 21 l-60 0 0 40 0 40 60 0 c53 0 60 2 60
20 0 13 -7 20 -20 20 -11 0 -20 5 -20 10 0 16 -113 12 -127 -5z"/>
<path d="M3245 3658 c-3 -40 -8 -187 -11 -325 l-5 -253 96 0 c78 0 95 3 95 15
0 8 5 15 10 15 6 0 10 9 10 20 0 11 5 20 10 20 6 0 10 68 10 185 0 117 -4 185
-10 185 -5 0 -10 25 -10 55 0 30 5 55 10 55 6 0 10 9 10 20 0 11 -4 20 -10 20
-5 0 -10 7 -10 16 0 33 -26 44 -108 44 l-80 0 -7 -72z m121 18 c8 -9 14 -35
14 -65 0 -50 -1 -51 -30 -51 l-30 0 0 65 c0 52 3 65 16 65 8 0 22 -6 30 -14z
m-6 -166 c0 -5 9 -10 20 -10 19 0 20 -7 20 -165 0 -103 -4 -165 -10 -165 -5 0
-9 -3 -9 -7 4 -23 -3 -33 -21 -33 -11 0 -20 5 -20 10 0 6 -9 10 -20 10 -19 0
-20 7 -20 155 0 97 4 155 10 155 6 0 10 14 10 30 0 23 4 30 20 30 11 0 20 -4
20 -10z"/>
<path d="M3760 3514 c0 -178 -3 -218 -15 -230 -11 -11 -15 -38 -15 -95 0 -64
3 -79 15 -79 8 0 15 -7 15 -15 0 -12 18 -15 100 -15 l100 0 0 25 c0 18 -5 25
-20 25 -11 0 -20 5 -20 10 0 6 -13 10 -30 10 -16 0 -30 -4 -30 -10 0 -15 -29
-12 -46 4 -16 17 -21 161 -5 151 6 -3 10 82 11 215 l1 220 -31 0 -30 0 0 -216z"/>
<path d="M3980 3405 l0 -325 105 0 c100 0 105 1 105 21 0 11 -6 27 -14 35 -17
16 -66 19 -66 3 0 -6 -12 -9 -27 -7 l-28 3 -3 298 -2 297 -35 0 -35 0 0 -325z"/>
<path d="M1340 3510 c0 -5 -5 -10 -10 -10 -6 0 -26 -16 -45 -35 -33 -33 -35
-38 -35 -105 0 -40 4 -70 10 -70 6 0 10 -7 10 -16 0 -22 25 -44 49 -44 12 0
21 -4 21 -10 0 -6 40 -10 100 -10 60 0 100 -4 100 -10 0 -5 11 -10 25 -10 14
0 25 -4 25 -10 0 -5 9 -10 20 -10 11 0 20 -4 20 -10 0 -5 14 -10 30 -10 17 0
30 -4 30 -10 0 -5 9 -10 20 -10 11 0 20 -4 20 -10 0 -5 9 -10 20 -10 11 0 20
-7 20 -15 0 -10 11 -15 35 -15 19 0 35 -4 35 -10 0 -5 9 -10 20 -10 11 0 20
-4 20 -10 0 -5 9 -10 20 -10 11 0 20 -4 20 -10 0 -5 14 -10 30 -10 17 0 30 -4
30 -10 0 -5 9 -10 20 -10 11 0 20 -4 20 -10 0 -5 11 -10 25 -10 14 0 25 -4 25
-10 0 -5 14 -10 30 -10 17 0 30 -4 30 -10 0 -5 9 -10 20 -10 11 0 20 -4 20
-10 0 -5 9 -10 20 -10 11 0 20 -4 20 -10 0 -5 14 -10 30 -10 17 0 30 -4 30
-10 0 -5 25 -10 55 -10 48 0 55 2 55 20 0 11 5 20 10 20 6 0 10 9 10 20 0 11
5 20 10 20 6 0 10 14 10 30 0 17 5 30 10 30 6 0 10 9 10 20 0 11 5 20 10 20 6
0 10 11 10 25 0 14 5 25 10 25 6 0 10 14 10 30 0 17 5 30 10 30 6 0 10 9 10
20 0 11 5 20 10 20 6 0 10 9 10 20 0 11 -4 20 -10 20 -5 0 -10 9 -10 20 0 13
-7 20 -20 20 -11 0 -20 5 -20 10 0 6 -22 10 -50 10 -43 0 -50 -3 -50 -20 0
-11 -4 -20 -10 -20 -5 0 -10 -9 -10 -20 0 -11 -4 -20 -10 -20 -5 0 -10 -9 -10
-20 0 -11 -7 -20 -15 -20 -10 0 -15 -10 -15 -30 0 -16 -4 -30 -10 -30 -5 0
-10 -11 -10 -25 0 -18 -5 -25 -20 -25 -11 0 -20 7 -20 15 0 8 -9 15 -20 15
-11 0 -20 5 -20 10 0 6 -9 10 -20 10 -11 0 -20 5 -20 10 0 6 -13 10 -30 10
-16 0 -30 5 -30 10 0 6 -11 10 -25 10 -14 0 -25 5 -25 10 0 6 -9 10 -20 10
-11 0 -20 5 -20 10 0 6 -13 10 -30 10 -16 0 -30 5 -30 10 0 6 -9 10 -20 10
-11 0 -20 5 -20 10 0 6 -9 10 -20 10 -11 0 -20 5 -20 10 0 6 -9 10 -20 10 -11
0 -20 4 -20 8 0 4 -15 9 -32 10 -18 2 -34 7 -36 12 -2 6 -12 10 -23 10 -10 0
-19 5 -19 10 0 6 -13 10 -30 10 -20 0 -30 5 -30 15 0 8 -9 15 -20 15 -11 0
-20 5 -20 10 0 6 -11 10 -25 10 -18 0 -25 5 -25 20 0 11 -4 20 -10 20 -5 0
-10 7 -10 15 0 20 -45 65 -65 65 -8 0 -15 5 -15 10 0 6 -27 10 -60 10 -33 0
-60 -4 -60 -10z m80 -60 c0 -5 7 -10 16 -10 20 0 44 -24 44 -44 0 -9 5 -16 11
-16 20 0 4 -45 -28 -77 -31 -32 -83 -46 -83 -23 0 6 -9 10 -20 10 -13 0 -20 7
-20 20 0 11 -7 20 -15 20 -10 0 -15 11 -15 35 0 22 5 35 13 35 7 0 19 9 27 20
8 11 22 20 32 20 10 0 18 5 18 10 0 6 5 10 10 10 6 0 10 -4 10 -10z"/>
<path d="M2730 3490 c0 -5 -9 -10 -20 -10 -13 0 -20 -7 -20 -18 0 -10 -9 -24
-20 -32 -17 -12 -20 -26 -20 -87 0 -42 4 -73 10 -73 6 0 10 -9 10 -20 0 -11
-4 -20 -10 -20 -5 0 -10 -9 -10 -20 0 -11 -4 -20 -10 -20 -5 0 -10 -9 -10 -20
0 -11 -4 -20 -10 -20 -5 0 -10 -16 -10 -35 0 -19 -4 -35 -10 -35 -5 0 -10 -9
-10 -20 0 -11 -4 -20 -10 -20 -5 0 -10 -9 -10 -20 0 -11 -4 -20 -10 -20 -5 0
-10 -13 -10 -30 0 -20 -5 -30 -15 -30 -8 0 -15 -9 -15 -20 0 -11 -4 -20 -10
-20 -5 0 -10 -11 -10 -25 0 -14 -4 -25 -10 -25 -5 0 -10 -13 -10 -30 0 -16 -4
-30 -10 -30 -5 0 -10 -9 -10 -20 0 -11 -4 -20 -10 -20 -5 0 -10 -9 -10 -20 0
-11 -4 -20 -10 -20 -5 0 -10 -13 -10 -30 0 -16 -4 -30 -10 -30 -5 0 -10 -11
-10 -25 0 -14 -4 -25 -10 -25 -5 0 -10 -13 -10 -30 0 -16 -4 -30 -10 -30 -5 0
-10 -9 -10 -20 0 -11 -4 -20 -10 -20 -5 0 -10 -9 -10 -20 0 -11 -4 -20 -10
-20 -18 0 -11 -55 10 -70 11 -8 20 -20 20 -27 0 -7 9 -13 20 -13 11 0 20 -4
20 -10 0 -5 9 -10 20 -10 11 0 20 -4 20 -10 0 -5 14 -10 30 -10 17 0 30 -4 30
-10 0 -5 11 -10 25 -10 14 0 25 -4 25 -10 0 -5 9 -10 20 -10 11 0 20 -4 20
-10 0 -5 14 -10 30 -10 17 0 30 -4 30 -10 0 -5 18 -10 40 -10 33 0 40 3 40 20
0 11 5 20 10 20 6 0 10 9 10 20 0 11 5 20 10 20 15 0 12 60 -4 76 -8 8 -22 14
-30 14 -9 0 -16 5 -16 10 0 6 -9 10 -19 10 -11 0 -21 4 -23 10 -1 5 -15 11
-30 12 -16 1 -28 6 -28 10 0 4 -7 8 -16 8 -8 0 -22 6 -30 14 -16 17 -19 46 -4
46 6 0 10 14 10 30 0 17 5 30 10 30 6 0 10 11 10 25 0 14 5 25 10 25 6 0 10 9
10 20 0 11 5 20 10 20 6 0 10 14 10 30 0 17 5 30 10 30 6 0 10 9 10 20 0 11 5
20 10 20 6 0 10 9 10 20 0 11 5 20 10 20 6 0 10 16 10 35 0 19 5 35 10 35 6 0
10 9 10 20 0 11 5 20 10 20 6 0 10 14 10 30 0 17 5 30 10 30 6 0 10 9 10 20 0
11 5 20 10 20 6 0 10 9 10 20 0 11 7 20 15 20 10 0 15 11 15 35 0 19 5 35 10
35 6 0 10 7 10 16 0 18 23 44 40 44 6 0 22 11 36 25 14 14 30 23 35 20 5 -4 9
3 9 14 0 12 5 21 10 21 6 0 10 30 10 70 0 70 0 71 -45 115 -44 45 -45 45 -115
45 -40 0 -70 -4 -70 -10z m104 -62 c-3 -4 0 -8 6 -8 17 0 40 -26 40 -44 0 -9
5 -16 10 -16 6 0 10 -9 10 -20 0 -24 -42 -70 -64 -70 -8 0 -17 -6 -20 -12 -5
-10 -7 -10 -12 1 -5 11 -8 11 -15 0 -6 -10 -9 -11 -9 -1 0 6 -5 12 -10 12 -21
0 -60 49 -60 75 0 38 57 91 97 92 18 0 30 -4 27 -9z"/>
<path d="M1880 3460 c0 -11 -4 -20 -10 -20 -5 0 -10 -9 -10 -20 0 -11 -4 -20
-10 -20 -5 0 -10 -20 -10 -45 0 -38 3 -45 20 -45 11 0 20 -4 20 -10 0 -5 14
-10 30 -10 17 0 30 -4 30 -10 0 -5 9 -10 20 -10 11 0 20 -4 20 -10 0 -5 9 -10
20 -10 11 0 20 -4 20 -10 0 -5 16 -10 35 -10 19 0 35 -4 35 -10 0 -5 9 -10 20
-10 11 0 20 -4 20 -10 0 -5 9 -10 20 -10 11 0 20 -4 20 -10 0 -5 18 -10 40
-10 33 0 40 3 40 20 0 11 5 20 10 20 6 0 10 9 10 20 0 11 5 20 10 20 6 0 10
18 10 40 0 33 -3 40 -20 40 -11 0 -20 7 -20 15 0 10 -10 15 -30 15 -16 0 -30
5 -30 10 0 6 -9 10 -20 10 -11 0 -20 5 -20 10 0 6 -9 10 -20 10 -11 0 -20 5
-20 10 0 6 -16 10 -35 10 -19 0 -35 5 -35 10 0 6 -9 10 -20 10 -11 0 -20 5
-20 10 0 6 -9 10 -20 10 -11 0 -20 5 -20 10 0 6 -18 10 -40 10 -33 0 -40 -3
-40 -20z"/>
<path d="M1463 3035 c-13 -13 -23 -31 -23 -40 0 -8 -4 -15 -10 -15 -5 0 -10
-11 -10 -25 0 -32 41 -74 74 -77 16 -2 22 -6 16 -13 -6 -7 0 -11 18 -13 15 -1
29 -7 30 -12 2 -6 15 -10 28 -10 13 0 24 -4 24 -10 0 -5 9 -10 20 -10 13 0 20
-7 20 -20 0 -11 -4 -20 -10 -20 -5 0 -10 -13 -10 -30 0 -16 -4 -30 -10 -30 -5
0 -10 -9 -10 -20 0 -11 -4 -20 -10 -20 -5 0 -10 -16 -10 -35 0 -24 -5 -35 -15
-35 -8 0 -15 -9 -15 -20 0 -11 -4 -20 -10 -20 -5 0 -10 -11 -10 -24 0 -14 -4
-28 -10 -31 -5 -3 -10 -15 -10 -26 0 -10 -4 -19 -10 -19 -5 0 -10 -9 -10 -20
0 -11 -4 -20 -10 -20 -5 0 -10 -16 -10 -35 0 -19 -4 -35 -10 -35 -5 0 -10 -9
-10 -20 0 -11 -4 -20 -10 -20 -5 0 -10 -9 -10 -20 0 -11 -4 -20 -10 -20 -5 0
-10 -13 -10 -30 0 -16 -4 -30 -10 -30 -5 0 -10 -9 -10 -20 0 -11 -4 -20 -10
-20 -5 0 -10 -14 -10 -31 0 -33 -19 -59 -45 -59 -8 0 -31 -16 -50 -35 -33 -32
-35 -38 -35 -100 0 -37 4 -65 10 -65 6 0 10 -9 10 -20 0 -31 44 -70 80 -70 16
0 30 -4 30 -10 0 -5 14 -10 30 -10 17 0 30 5 30 10 0 6 9 10 20 10 11 0 20 5
20 10 0 6 7 10 16 10 22 0 44 25 44 49 0 12 5 21 10 21 6 0 10 27 10 60 0 33
-4 60 -10 60 -5 0 -10 18 -10 40 0 22 5 40 10 40 6 0 10 16 10 35 0 24 5 35
15 35 8 0 15 9 15 20 0 11 5 20 10 20 6 0 10 14 10 30 0 17 5 30 10 30 6 0 10
9 10 20 0 11 5 20 10 20 6 0 10 9 10 20 0 11 5 20 10 20 6 0 10 16 10 35 0 19
5 35 10 35 6 0 10 9 10 20 0 11 5 20 10 20 6 0 10 14 10 30 0 17 5 30 10 30 6
0 10 9 10 20 0 11 5 20 10 20 6 0 10 9 10 20 0 11 5 20 10 20 6 0 10 16 10 35
0 19 5 35 10 35 6 0 10 9 10 20 0 11 7 20 15 20 10 0 15 10 15 30 0 17 5 30
10 30 6 0 10 9 10 20 0 11 5 20 10 20 6 0 10 12 10 26 0 14 4 23 10 19 6 -4
10 7 10 25 0 36 -38 80 -70 80 -11 0 -20 5 -20 10 0 6 -13 10 -30 10 -16 0
-30 5 -30 10 0 6 -9 10 -20 10 -11 0 -20 5 -20 10 0 6 -13 10 -30 10 -16 0
-30 5 -30 10 0 6 -9 10 -20 10 -11 0 -20 5 -20 10 0 6 -16 10 -35 10 -19 0
-35 5 -35 10 0 18 -35 9 -57 -15z m3 -1029 c8 -8 14 -21 14 -29 0 -9 6 -18 13
-21 10 -5 10 -7 0 -12 -7 -3 -13 -19 -13 -35 0 -22 -5 -29 -20 -29 -11 0 -20
-7 -20 -15 0 -11 -11 -15 -40 -15 -29 0 -40 4 -40 15 0 8 -4 15 -10 15 -5 0
-10 9 -10 20 0 11 -7 20 -15 20 -8 0 -15 9 -15 20 0 11 7 20 15 20 8 0 15 7
15 15 0 9 6 22 13 30 16 19 94 19 113 1z"/>
<path d="M3820 3010 c0 -5 -9 -10 -20 -10 -20 0 -20 -7 -20 -290 0 -187 4
-290 10 -290 6 0 10 -9 10 -20 0 -16 -7 -20 -35 -20 l-35 0 0 70 c0 40 -4 70
-10 70 -6 0 -10 73 -10 200 0 127 -4 200 -10 200 -5 0 -10 7 -10 16 0 23 -25
44 -53 44 -14 0 -28 6 -31 13 -5 10 -7 10 -12 0 -3 -7 -12 -13 -21 -13 -37 0
-43 -24 -43 -179 0 -94 -4 -151 -10 -151 -6 0 -10 -43 -10 -109 0 -72 -4 -112
-12 -117 -7 -5 -8 -3 -3 6 5 9 4 11 -3 6 -18 -11 -15 -86 3 -86 8 0 15 -4 15
-10 0 -5 7 -10 16 -10 35 0 41 22 43 180 1 85 7 157 12 158 5 2 9 30 9 63 0
59 0 59 30 59 l30 0 0 -95 c0 -52 4 -95 9 -95 5 0 10 -59 10 -131 2 -153 5
-159 80 -159 44 0 51 3 51 20 0 13 7 20 20 20 19 0 20 7 20 190 0 166 2 190
16 190 23 0 44 -25 44 -54 0 -14 5 -26 10 -26 6 0 10 -16 10 -35 0 -19 5 -35
10 -35 6 0 10 -13 10 -30 0 -16 5 -30 10 -30 6 0 10 -13 10 -30 0 -16 5 -30
10 -30 6 0 10 -13 10 -30 0 -16 5 -30 11 -30 14 0 39 -25 39 -39 0 -6 9 -11
20 -11 16 0 20 7 20 35 0 19 -4 35 -10 35 -5 0 -10 9 -10 20 0 11 -4 20 -10
20 -5 0 -10 14 -10 30 0 17 -4 30 -10 30 -5 0 -10 14 -10 30 0 20 -5 30 -15
30 -11 0 -15 12 -15 45 0 25 -4 45 -10 45 -5 0 -10 9 -10 20 0 11 -4 20 -10
20 -18 0 -11 35 10 50 17 12 20 26 20 97 0 49 -4 83 -10 83 -5 0 -10 7 -10 16
0 20 -24 44 -44 44 -9 0 -16 5 -16 10 0 6 -18 10 -40 10 -22 0 -40 -4 -40 -10z
m86 -64 c9 -10 14 -37 14 -85 l0 -71 -40 0 -40 0 0 85 c0 85 0 85 26 85 14 0
32 -6 40 -14z m-270 -20 c8 -8 14 -28 14 -45 0 -28 -3 -31 -30 -31 -29 0 -30
2 -30 45 0 48 17 60 46 31z"/>
<path d="M3400 2981 c0 -11 -6 -22 -12 -25 -10 -5 -10 -7 0 -12 15 -7 18 -384
2 -384 -6 0 -10 -29 -10 -68 0 -65 -1 -68 -26 -70 -26 -2 -54 17 -54 38 0 18
-27 40 -49 40 -17 0 -21 -6 -21 -36 0 -35 18 -64 39 -64 6 0 11 -4 11 -10 0
-6 30 -10 70 -10 63 0 70 2 70 20 0 11 5 20 10 20 6 0 10 13 10 29 0 16 6 31
13 34 9 3 8 8 -3 22 -9 11 -10 16 -2 11 9 -6 12 41 12 218 0 144 -4 226 -10
226 -5 0 -10 9 -10 20 0 13 -7 20 -20 20 -13 0 -20 -7 -20 -19z"/>
<path d="M2763 2893 c-7 -15 -13 -35 -13 -45 0 -10 -4 -18 -10 -18 -5 0 -10
-9 -10 -20 0 -11 -4 -20 -10 -20 -5 0 -10 -9 -10 -19 0 -11 -4 -23 -10 -26 -5
-3 -10 -17 -10 -31 0 -13 -4 -24 -10 -24 -5 0 -10 -9 -10 -20 0 -11 -4 -20
-10 -20 -5 0 -10 -16 -10 -35 0 -19 -4 -35 -10 -35 -5 0 -10 -9 -10 -20 0 -11
-4 -20 -10 -20 -5 0 -10 -9 -10 -20 0 -13 7 -20 20 -20 11 0 20 -4 20 -10 0
-5 9 -10 20 -10 11 0 20 -4 20 -10 0 -5 18 -10 40 -10 22 0 40 5 40 10 0 6 7
10 15 10 8 0 15 9 15 20 0 11 5 20 10 20 6 0 10 9 10 20 0 11 5 20 10 20 6 0
10 16 10 35 0 19 5 35 10 35 6 0 10 9 10 20 0 11 5 20 10 20 6 0 10 9 10 20 0
11 5 20 10 20 6 0 10 14 10 30 0 17 5 30 10 30 6 0 10 9 10 20 0 11 5 20 10
20 6 0 10 9 10 20 0 11 -4 20 -10 20 -5 0 -10 7 -10 15 0 8 -9 15 -20 15 -11
0 -20 5 -20 10 0 6 -9 10 -20 10 -11 0 -20 5 -20 10 0 6 -15 10 -32 10 -26 0
-36 -6 -45 -27z"/>
<path d="M1413 2815 c-7 -8 -13 -21 -13 -30 0 -8 -4 -15 -10 -15 -5 0 -10 -13
-10 -30 0 -16 -4 -30 -10 -30 -5 0 -10 -9 -10 -20 0 -11 -4 -20 -10 -20 -5 0
-10 -9 -10 -20 0 -11 -7 -20 -15 -20 -10 0 -15 -11 -15 -35 0 -19 -4 -35 -10
-35 -5 0 -10 -9 -10 -20 0 -11 -4 -20 -10 -20 -5 0 -10 -13 -10 -30 0 -16 -4
-30 -10 -30 -5 0 -10 -9 -10 -20 0 -13 7 -20 20 -20 11 0 20 -4 20 -10 0 -5
16 -10 35 -10 19 0 35 -4 35 -10 0 -15 49 -12 66 4 8 8 14 22 14 30 0 9 5 16
10 16 6 0 10 14 10 30 0 17 5 30 10 30 6 0 10 9 10 20 0 11 5 20 10 20 6 0 10
14 10 30 0 17 5 30 10 30 6 0 10 11 10 25 0 14 5 25 10 25 6 0 10 14 10 30 0
17 5 30 10 30 6 0 10 11 10 25 0 19 4 23 17 18 12 -5 11 -1 -5 15 -12 12 -29
22 -37 22 -8 0 -15 5 -15 10 0 6 -9 10 -20 10 -11 0 -20 5 -20 10 0 15 -53 11
-67 -5z"/>
<path d="M1830 2400 c-8 -11 -20 -20 -27 -20 -8 0 -13 -13 -13 -35 0 -19 -4
-35 -10 -35 -5 0 -10 -9 -10 -20 0 -11 -4 -20 -10 -20 -5 0 -10 -13 -10 -30 0
-16 -4 -30 -10 -30 -5 0 -10 -9 -10 -20 0 -11 -4 -20 -10 -20 -5 0 -10 -9 -10
-20 0 -11 -4 -20 -10 -20 -5 0 -10 -15 -10 -34 0 -19 -6 -37 -12 -40 -10 -5
-10 -7 0 -12 6 -3 12 -14 12 -25 0 -12 7 -19 20 -19 11 0 20 -4 20 -10 0 -5
23 -10 51 -10 52 0 79 15 79 44 0 9 5 16 10 16 6 0 10 14 10 30 0 17 5 30 10
30 6 0 10 11 10 25 0 14 5 25 10 25 6 0 10 7 10 16 0 22 32 53 38 36 2 -6 12
-12 23 -12 10 0 19 -4 19 -10 0 -5 16 -10 35 -10 19 0 35 -4 35 -10 0 -5 9
-10 20 -10 11 0 20 -4 20 -10 0 -5 9 -10 20 -10 11 0 20 -7 20 -15 0 -10 10
-15 30 -15 17 0 30 -4 30 -10 0 -5 9 -10 20 -10 11 0 20 -4 20 -10 0 -5 9 -10
20 -10 11 0 20 -4 20 -10 0 -5 16 -10 35 -10 19 0 35 -4 35 -10 0 -5 9 -10 20
-10 11 0 20 -4 20 -10 0 -5 14 -10 30 -10 17 0 30 -4 30 -10 0 -5 9 -10 20
-10 11 0 20 -4 20 -10 0 -5 11 -10 25 -10 14 0 25 -4 25 -10 0 -5 11 -10 25
-10 31 0 75 -41 75 -70 0 -11 5 -20 10 -20 6 0 10 -9 10 -20 0 -13 7 -20 20
-20 11 0 20 -4 20 -10 0 -5 9 -10 20 -10 11 0 20 -4 20 -10 0 -5 20 -10 45
-10 25 0 45 5 45 10 0 6 9 10 20 10 11 0 20 5 20 10 0 6 9 10 20 10 13 0 20 7
20 20 0 11 5 20 10 20 6 0 10 11 10 25 0 14 5 25 10 25 6 0 10 18 10 40 0 22
-4 40 -10 40 -5 0 -10 7 -10 15 0 26 -66 85 -95 85 -14 0 -25 5 -25 10 0 6
-11 10 -25 10 -14 0 -25 -4 -25 -10 0 -5 -22 -10 -50 -10 -27 0 -50 5 -50 10
0 6 -9 10 -20 10 -11 0 -20 7 -20 15 0 10 -10 15 -30 15 -16 0 -30 5 -30 10 0
6 -11 10 -25 10 -14 0 -25 5 -25 10 0 6 -9 10 -20 10 -11 0 -20 5 -20 10 0 6
-13 10 -30 10 -16 0 -30 5 -30 10 0 6 -9 10 -20 10 -11 0 -20 5 -20 10 0 6
-13 10 -30 10 -16 0 -30 5 -30 10 0 6 -11 10 -25 10 -14 0 -25 5 -25 10 0 6
-9 10 -20 10 -11 0 -20 5 -20 10 0 6 -13 10 -30 10 -16 0 -30 5 -30 10 0 6 -9
10 -20 10 -11 0 -20 5 -20 10 0 6 -9 10 -20 10 -11 0 -20 5 -20 10 0 6 -16 10
-35 10 -24 0 -35 5 -35 15 0 8 -9 15 -20 15 -11 0 -20 5 -20 10 0 6 -13 10
-30 10 -16 0 -30 5 -30 10 0 6 -17 10 -38 10 -26 0 -42 -6 -52 -20z m1025
-405 c17 -16 25 -35 25 -60 0 -19 -4 -35 -8 -35 -5 0 -15 -11 -22 -25 -11 -21
-21 -25 -57 -25 -28 0 -43 4 -43 13 0 7 -9 19 -20 27 -28 20 -26 74 3 105 31
33 89 34 122 0z"/>
<path d="M3280 2240 c0 -5 -3 -9 -7 -9 -27 4 -43 -3 -43 -21 0 -18 7 -20 55
-20 l55 0 0 -240 c0 -153 -4 -240 -10 -240 -5 0 -10 -13 -10 -30 0 -16 5 -30
10 -30 6 0 10 -11 10 -25 0 -18 5 -25 20 -25 11 0 20 7 20 15 0 8 5 15 10 15
6 0 10 100 10 280 l0 280 55 0 c48 0 55 2 55 20 0 11 -7 20 -15 20 -8 0 -15 5
-15 10 0 15 -117 13 -124 -2 -5 -10 -7 -10 -12 0 -7 14 -64 17 -64 2z"/>
<path d="M3610 2240 c0 -5 -7 -10 -16 -10 -20 0 -44 -24 -44 -44 0 -9 -4 -16
-10 -16 -6 0 -10 -70 -10 -190 0 -104 -4 -190 -9 -190 -5 0 -9 -47 -10 -105
l-2 -105 31 0 30 0 0 115 c0 70 4 115 10 115 6 0 10 45 10 115 l0 115 26 0
c50 0 54 -14 54 -205 0 -138 3 -175 13 -169 7 5 6 0 -3 -11 -11 -14 -12 -19
-2 -22 6 -3 12 -20 12 -39 l0 -34 50 0 c62 0 100 31 100 80 0 16 5 30 10 30 7
0 10 57 10 165 -1 98 -6 165 -11 165 -6 0 -9 27 -8 60 1 32 6 57 11 54 4 -3 8
0 8 5 0 6 5 11 10 11 6 0 10 -9 10 -21 0 -12 14 -34 30 -49 l30 -28 0 -216 c0
-209 1 -216 20 -216 11 0 20 7 20 15 0 8 7 15 15 15 13 0 15 40 15 300 l0 300
-35 0 c-34 0 -35 -1 -35 -40 0 -22 -3 -40 -6 -40 -3 0 -23 18 -43 39 -57 60
-91 60 -91 1 0 -22 -4 -40 -10 -40 -6 0 -10 -38 -10 -95 0 -57 4 -95 10 -95 6
0 10 -57 10 -151 0 -127 -3 -153 -17 -167 -12 -12 -18 -13 -21 -4 -2 6 -10 12
-18 12 -12 0 -14 31 -14 175 0 110 -4 175 -10 175 -6 0 -10 40 -10 101 0 110
-8 129 -54 129 -14 0 -26 5 -26 10 0 6 -4 10 -10 10 -5 0 -10 -4 -10 -10z m40
-95 c0 -43 -1 -45 -30 -45 -29 0 -30 2 -30 45 0 43 1 45 30 45 29 0 30 -2 30
-45z"/>
<path d="M4070 2184 c0 -25 -4 -43 -9 -39 -6 3 -10 -79 -11 -205 0 -138 3
-210 10 -210 5 0 10 -22 10 -50 0 -27 5 -50 10 -50 6 0 10 -7 10 -15 0 -8 5
-15 10 -15 6 0 10 7 10 15 0 8 5 15 10 15 14 0 12 86 -2 111 -10 17 -10 23 0
26 6 3 12 16 12 29 0 14 -4 22 -10 19 -5 -3 -10 -1 -10 4 0 6 9 11 20 11 13 0
20 -7 20 -20 0 -11 5 -20 10 -20 6 0 10 -9 10 -20 0 -11 5 -20 10 -20 6 0 10
-13 10 -30 0 -16 5 -30 10 -30 6 0 10 -9 10 -20 0 -11 5 -20 11 -20 14 0 39
-25 39 -39 0 -6 9 -11 20 -11 17 0 20 7 20 45 0 25 -4 45 -10 45 -5 0 -10 9
-10 20 0 11 -4 20 -10 20 -5 0 -10 9 -10 20 0 11 -4 20 -10 20 -5 0 -10 9 -10
20 0 11 -7 20 -15 20 -8 0 -15 9 -15 20 0 11 -4 20 -10 20 -5 0 -10 10 -10 23
0 12 -9 29 -20 37 -20 15 -28 65 -11 72 5 2 11 10 13 18 4 18 44 60 58 60 5 0
10 9 10 20 0 11 5 20 10 20 6 0 10 25 10 55 0 49 -2 55 -21 55 -31 0 -49 -24
-49 -67 0 -27 -6 -43 -20 -53 -11 -8 -20 -22 -20 -32 0 -11 -7 -18 -20 -18
-19 0 -20 7 -20 95 0 88 -1 95 -20 95 -17 0 -20 -7 -20 -46z"/>
<path d="M1949 2128 c0 -2 -3 -16 -5 -33 -3 -16 -9 -31 -15 -33 -5 -2 -9 -12
-9 -23 0 -10 -4 -19 -10 -19 -5 0 -10 -13 -10 -30 0 -27 3 -30 30 -30 17 0 30
-4 30 -10 0 -5 9 -10 20 -10 11 0 20 -4 20 -10 0 -5 9 -10 20 -10 11 0 20 -4
20 -10 0 -5 16 -10 35 -10 19 0 35 -4 35 -10 0 -5 9 -10 20 -10 11 0 20 -7 20
-15 0 -8 9 -15 20 -15 11 0 20 -4 20 -10 0 -5 14 -10 30 -10 17 0 30 -4 30
-10 0 -15 60 -12 76 4 8 8 14 24 14 35 0 12 5 21 10 21 6 0 10 13 10 29 0 16
6 31 12 33 17 6 -14 38 -36 38 -9 0 -16 5 -16 10 0 6 -11 10 -25 10 -14 0 -25
5 -25 10 0 6 -13 10 -30 10 -16 0 -30 5 -30 10 0 6 -9 10 -20 10 -11 0 -20 5
-20 10 0 6 -13 10 -30 10 -16 0 -30 5 -30 10 0 6 -9 10 -20 10 -11 0 -20 5
-20 10 0 6 -11 10 -25 10 -16 0 -25 6 -25 15 0 10 -11 15 -35 15 -19 0 -35 -1
-36 -2z"/>
</g>
</svg>
